<svg id="Слой_1" data-name="Слой 1" xmlns="http://www.w3.org/2000/svg" width="296" height="296" viewBox="0 0 296 296">
  <title>logoМонтажная область 5</title>
  <g>
    <path d="M52,153.88829V126.081h96.33637v27.80726H117.48051v109.2534H83.03591V153.88829Z"/>
    <path d="M147.66363,153.88829V126.081H244v27.80726H213.14414v109.2534h-34.4446V153.88829Z"/>
    <g>
      <path d="M144.2463,122.83842a6.66951,6.66951,0,0,0-1.01057-.34007c-.81111-.227-1.625-.4434-2.43908-.65917-.51773-.13733-1.03519-.27688-1.55748-.39493-.43565-.0985-.87951-.15974-1.317-.25108-.453-.0946-.90062-.21473-1.354-.30672-.47773-.09694-.47956-.08821-.48177-.55571-.00352-.72562-.01433-.73891-.71888-.866-.03531-.00638-.07165-.007-.10709-.01277a.77594.77594,0,0,1-.7108-.6266,3.51993,3.51993,0,0,0-.32843-.7939.51505.51505,0,0,0-.6239-.16352.37812.37812,0,0,0-.21717.4477,5.93358,5.93358,0,0,0,.14761.68236c.0327.12469.02488.22189-.11686.241a.618.618,0,0,0-.59863.68692,2.38937,2.38937,0,0,1-.06944.259c-.02723.21082-.15829.26281-.34328.24574-.40947-.03753-.81854-.07883-1.2284-.11219-.85515-.06971-1.71-.18163-2.566-.19049a20.92741,20.92741,0,0,0-3.22648.082,15.03269,15.03269,0,0,1-2.03652.113,18.001,18.001,0,0,0-2.61964.21916q-1.72183.26463-3.44379.528a7.99677,7.99677,0,0,1-1.80358.2344c-.96641.13043-1.9164.34867-2.88593.46425a3.75245,3.75245,0,0,1-1.48518.73591,3.28321,3.28321,0,0,0-.61609.19167,1.69642,1.69642,0,0,0-.74415,2.67733,1.03465,1.03465,0,0,1,.19529.4348c.087.30385.121.39753.25978.4318,2.52545.0073,5.04869.04586,7.57075.09955q1.61083.01622,3.22166.033c1.22266.01108,2.44559.00169,3.66826.01.23137.00156.46223.05928.6936.06124.5546.00443,1.10919-.00964,1.66379-.01485.2844-.00261.56906-.00886.85319-.00091.16024.00443.31957.04912.47956.05056,4.01636.03635,8.03376-.05251,12.04947.07218,1.21211-.03713,2.41289-.13056,3.6164-.22932a2.85779,2.85779,0,0,0,.07778-.30854,1.21792,1.21792,0,0,1,.48815-.84354.89358.89358,0,0,0,.30993-.6507,4.53344,4.53344,0,0,0-.19451-1.258A.85247.85247,0,0,0,144.2463,122.83842Z" style="fill: red"/>
      <path d="M120.80162,65.52611a3.40423,3.40423,0,0,1-.44164-.51832l-.00795.01134c-.49649.83116-.97514,1.67613-1.4061,2.54273A47.4967,47.4967,0,0,0,116.90147,72.83c-.16832.47219-.27736.96524-.41885,1.4472a53.72451,53.72451,0,0,0-1.47475,5.99859c-.15164.88106-.39527,1.746-.55968,2.62508-.15451.82621-.26251,1.66115-.38589,2.49309-.16558,1.11573-.336,2.2308-.48581,3.34875-.10461.77982-.17783,1.56382-.26538,2.346-.06566.58633-.13575,1.17228-.19607,1.75913-.04573.44509-.08286.89123-.11738,1.33723-.04443.57148-.078,1.14387-.12429,1.71522-.06045.74907-.1321,1.49737-.19281,2.24644q-.1194,1.47209-.22864,2.94483c-.073.98178-.152,1.96344-.20454,2.94626-.02983.55611-.0112,1.11469-.01511,1.67209a4.00782,4.00782,0,0,1-.01042.485c-.02879.22372-.1136-.00821-.13054.00782a.55421.55421,0,0,0-.0882.162c-.02866-.03323-.08182-.06606-.08221-.09955-.0056-.43154-.00378-.86321-.00378-1.29476l-.00912-.00026c.0396-1.07521.06748-2.15106.1222-3.22562.05654-1.10648.13549-2.212.21183-3.31748.06892-.99989.09211-2.00722.237-2.9963.1562-1.066.19972-2.13777.30967-3.205.14839-1.44043.32622-2.87825.51838-4.31359.204-1.52512.41741-3.04972.66768-4.5678.22708-1.37762.45949-2.75772.778-4.1158.53232-2.26859,1.09265-4.53314,1.81973-6.74909a28.92169,28.92169,0,0,1,2.32078-5.66881c.40907-.7.85919-1.37593,1.31725-2.04709a4.32884,4.32884,0,0,1-.23372-.44783c-.37846.58242-.76578,1.16-1.11154,1.76135a27.24807,27.24807,0,0,0-1.96564,4.42851c-.59863,1.67118-1.11375,3.37533-1.59213,5.0856-.44425,1.58805-.81633,3.19773-1.17381,4.8082-.24427,1.10022-.41194,2.21738-.6084,3.328-.14656.82816-.30329,1.65529-.42093,2.48775-.1377.9741-.2388,1.95353-.35423,2.93076-.13627,1.1543-.28362,2.30742-.4023,3.46354-.0951.92576-.148,1.85568-.23124,2.78274-.09758,1.08654-.22278,2.17074-.30837,3.25819-.09015,1.14244-.15842,2.28683-.21613,3.43136-.05237,1.03885-.10409,2.079-.10943,3.11877-.01368,2.64072-.059,5.28248.10644,7.92072.03127.50021.07778.99976.13184,1.49815q.13875,1.28.2969,2.55785c.09093.7453.1764,1.49176.29261,2.23328.01355.08665.034.17212.04872.25864.6708-.06319,1.3347-.18059,1.99743-.31037a34.17188,34.17188,0,0,1-.51525-3.47865c-.08038-.99729-.21887-1.98989-.30277-2.98691-.06162-.73135-.11673-1.467-.10566-2.19979.028-1.84852-.09979-3.69781.08338-5.54672.10044-1.01488.083-2.04135.12272-3.06236.03426-.87742.07413-1.75457.11165-2.63186.00078-.018.00156-.036.00313-.05381.10579-1.17527.21379-2.35029.31619-3.52569.04664-.53487.07126-1.07169.12507-1.60577.09471-.9423.20584-1.88291.30681-2.8247.04768-.44457.074-.89188.13471-1.3345.08494-.61956.20545-1.23417.28844-1.854.15555-1.16277.27046-2.33139.44959-3.49038.13653-.88341.36426-1.75236.51877-2.63342a43.05121,43.05121,0,0,1,.781-4.27151c.13614-.48366.27332-.96719.41963-1.448.44894-1.476.86023-2.96542,1.36558-4.422a33.46721,33.46721,0,0,1,2.06-4.79777,13.38559,13.38559,0,0,1,.87235-1.39443A1.00134,1.00134,0,0,1,120.80162,65.52611Z"/>
      <path d="M158.48992,71.29746a2.52149,2.52149,0,0,0-.55981-.48353c-.19959-.11414-.48581-.10828-.355-.47076.01954-.05407-.07165-.1587-.12689-.22776-.61583-.76888-1.23139-1.53828-1.85373-2.30195-.81424-.99937-1.62874-1.99862-2.45588-2.98731-.262-.313-.575-.58282-.84642-.88862-.29664-.3346-.57166-.68849-.857-1.03312-.50235-.60666-1.00888-1.2098-1.50706-1.81985-.45285-.55467-.88746-1.12433-1.34747-1.67288-.4948-.58972-1.01174-1.16094-1.51514-1.7435-.31606-.36574-.63042-.73344-.93618-1.10791-.50913-.6236-1.00536-1.258-1.51709-1.87953-.59173-.71871-1.19921-1.42453-1.7912-2.143-.76278-.92576-1.51162-1.86311-2.27623-2.78717-.77646-.93826-1.57494-1.85829-2.34554-2.80111-1.24677-1.52538-2.46422-3.075-3.79189-4.53249-.06006-.06593-.10631-.14424-.163-.21356-.408-.49877-.81294-1.00016-1.227-1.494-.472-.56275-.96211-1.11052-1.42681-1.67913-.67979-.83207-1.33314-1.68591-2.01736-2.51407q-1.3179-1.59483-2.67162-3.15982a1.43386,1.43386,0,0,0-.5529-.40353,2.74546,2.74546,0,0,0-1.43411-.09863,10.53915,10.53915,0,0,0-2.48011.86347,20.036,20.036,0,0,0-3.38855,2.08279c-.5103.36105-.968.7965-1.44883,1.19925a14.05124,14.05124,0,0,0-1.58119,1.36329c-.2831.32066-.61374.55506-.90661.84119a5.4416,5.4416,0,0,0-.82258,1.18778.91254.91254,0,0,0-.14487.81969.48094.48094,0,0,1-.05068.30906,2.68659,2.68659,0,0,0,.05276,2.036c.23046.62138.44985,1.24694.69009,1.86454.31228.80276.639,1.60017.96224,2.39876.43083,1.06465.8571,2.13126,1.298,3.19174.55082,1.32472,1.1144,2.6441,1.67252,3.96583q.35586.843.71184,1.68591c.08429.19987.10774.33929-.15477.46959-.32452.161-.33156.28457-.18148.61409a4.76741,4.76741,0,0,0,.32009.62295.43256.43256,0,0,0,.28283.18606c.5387.0357.54483.03726.68214.5363a4.50344,4.50344,0,0,0,.30042.91234.80407.80407,0,0,1,.07739.26033c.52659,1.18609.56319,2.85675,1.50563,3.75123a.9602.9602,0,0,1,.29052.54946c.02879.02827.05954.02853.0869.07714.08742.15531.1381.33121.22564.48653.07387.13121.00964.18476-.08129.26177-.3967.33577-.39344.33825-.17275.83742.03622.082.053.17277.09263.25264.11269.22672.20545.42959.55512.38086.27932-.03883.48359.12078.59967.45291q.82545,2.36351,1.72346,4.70162c.81007,2.11106,1.647,4.21183,2.47634,6.3156.21665.54959.45689,1.09006.66989,1.641a.84491.84491,0,0,0,.8459.539c.50092.02658,1.00341.07922,1.50315.06085.96563-.03557,1.92969-.113,2.8944-.17342a.75321.75321,0,0,0,.1067-.01472q2.02277-.42372,4.04541-.84875c.9285-.1961,1.86728-.35571,2.78171-.60458,1.88539-.51324,3.76023-1.06622,5.63455-1.61971,1.73727-.51311,3.44978-1.09853,5.14614-1.73868a46.00917,46.00917,0,0,0,4.90694-2.217,5.70935,5.70935,0,0,0,1.05213-.64822,6.702,6.702,0,0,0,.81411-.91533A.35934.35934,0,0,0,158.48992,71.29746Z" style="fill: red"/>
    </g>
  </g>
</svg>
