<svg id="Слой_1" data-name="Слой 1" xmlns="http://www.w3.org/2000/svg" width="296" height="296" viewBox="0 0 296 296">
  <title>logoМонтажная область 5 копия</title>
  <g>
    <path d="M52,153.91541V126.1086h96.33637v27.80681H117.48051V263.167H83.03591V153.91541Z" style="fill: #f5f5f5"/>
    <path d="M147.66363,153.91541V126.1086H244v27.80681H213.14414V263.167h-34.4446V153.91541Z" style="fill: #f5f5f5"/>
    <g>
      <path d="M144.2463,122.866a6.66959,6.66959,0,0,0-1.01057-.34007c-.81111-.227-1.625-.44339-2.43908-.65916-.51773-.13733-1.03519-.27688-1.55748-.39492-.43565-.0985-.87951-.15974-1.317-.25108-.453-.09459-.90062-.21473-1.354-.30671-.47773-.09694-.47956-.08821-.48177-.55571-.00352-.72561-.01433-.7389-.71888-.86594-.03531-.00638-.07165-.007-.10709-.01277a.77593.77593,0,0,1-.7108-.62659,3.51984,3.51984,0,0,0-.32843-.79388.51506.51506,0,0,0-.6239-.16352.37811.37811,0,0,0-.21717.44769,5.93341,5.93341,0,0,0,.14761.68235c.0327.12469.02488.22189-.11686.241a.618.618,0,0,0-.59863.68691,2.38929,2.38929,0,0,1-.06944.259c-.02723.21082-.15829.2628-.34328.24573-.40947-.03752-.81854-.07883-1.2284-.11218-.85515-.06971-1.71-.18163-2.566-.19049a20.92774,20.92774,0,0,0-3.22648.082,15.03291,15.03291,0,0,1-2.03652.113,18.00129,18.00129,0,0,0-2.61964.21916q-1.72183.26463-3.44379.528a7.99689,7.99689,0,0,1-1.80358.2344c-.96641.13042-1.9164.34867-2.88593.46424a3.75247,3.75247,0,0,1-1.48518.7359,3.28324,3.28324,0,0,0-.61609.19166,1.69638,1.69638,0,0,0-.74415,2.67729,1.03463,1.03463,0,0,1,.19529.43479c.087.30385.121.39753.25978.4318,2.52545.0073,5.04869.04586,7.57075.09954q1.61083.01622,3.22166.033c1.22266.01108,2.44559.00169,3.66826.01.23137.00156.46223.05928.6936.06124.5546.00443,1.10919-.00964,1.66379-.01485.2844-.00261.56906-.00886.85319-.00091.16024.00443.31957.04912.47956.05055,4.01636.03635,8.03376-.05251,12.04947.07218,1.21211-.03713,2.41289-.13055,3.6164-.22932a2.8577,2.8577,0,0,0,.07778-.30854,1.2179,1.2179,0,0,1,.48815-.84353.89356.89356,0,0,0,.30993-.65069,4.5333,4.5333,0,0,0-.19451-1.258A.85246.85246,0,0,0,144.2463,122.866Z" style="fill: red"/>
      <path d="M120.80162,65.55466a3.40419,3.40419,0,0,1-.44164-.51831l-.00795.01134c-.49649.83115-.97514,1.67611-1.4061,2.54269a47.49546,47.49546,0,0,0-2.04446,5.26806c-.16832.47219-.27736.96522-.41885,1.44718a53.72292,53.72292,0,0,0-1.47475,5.99849c-.15164.88105-.39527,1.74594-.55968,2.625-.15451.8262-.26251,1.66112-.38589,2.49305-.16558,1.11571-.336,2.23077-.48581,3.34869-.10461.77981-.17783,1.56379-.26538,2.34595-.06566.58632-.13575,1.17226-.19607,1.7591-.04573.44509-.08286.89121-.11738,1.33721-.04443.57147-.078,1.14385-.12429,1.71519-.06045.74906-.1321,1.49734-.19281,2.2464q-.1194,1.47206-.22864,2.94478c-.073.98177-.152,1.9634-.20454,2.94621-.02983.5561-.0112,1.11467-.01511,1.67207a4.00769,4.00769,0,0,1-.01042.485c-.02879.22372-.1136-.00821-.13054.00782a.5542.5542,0,0,0-.0882.162c-.02866-.03323-.08182-.06606-.08221-.09954-.0056-.43153-.00378-.8632-.00378-1.29473l-.00912-.00026c.0396-1.07519.06748-2.151.1222-3.22557.05654-1.10646.13549-2.212.21183-3.31742.06892-.99988.09211-2.00718.237-2.99625.1562-1.06594.19972-2.13774.30967-3.205.14839-1.4404.32622-2.8782.51838-4.31352.204-1.52509.41741-3.04967.66768-4.56773.22708-1.3776.45949-2.75768.778-4.11574.53232-2.26855,1.09265-4.53307,1.81973-6.749a28.921,28.921,0,0,1,2.32078-5.66871c.40907-.69994.85919-1.37591,1.31725-2.04705a4.32874,4.32874,0,0,1-.23372-.44782c-.37846.58242-.76578,1.16-1.11154,1.76132a27.24741,27.24741,0,0,0-1.96564,4.42844c-.59863,1.67115-1.11375,3.37527-1.59213,5.08552-.44425,1.588-.81633,3.19768-1.17381,4.80812-.24427,1.10021-.41194,2.21735-.6084,3.328-.14656.82815-.30329,1.65526-.42093,2.48771-.1377.97408-.2388,1.9535-.35423,2.93071-.13627,1.15428-.28362,2.30738-.4023,3.46348-.0951.92574-.148,1.85565-.23124,2.7827-.09758,1.08652-.22278,2.1707-.30837,3.25814-.09015,1.14242-.15842,2.2868-.21613,3.4313-.05237,1.03884-.10409,2.079-.10943,3.11872-.01368,2.64067-.059,5.28239.10644,7.92059.03127.5002.07778.99975.13184,1.49812q.13875,1.27995.2969,2.55781c.09093.74528.1764,1.49174.29261,2.23324.01355.08665.034.17212.04872.25863.6708-.06319,1.3347-.18059,1.99743-.31036a34.17081,34.17081,0,0,1-.51525-3.4786c-.08038-.99727-.21887-1.98985-.30277-2.98687-.06162-.73134-.11673-1.467-.10566-2.19976.028-1.84849-.09979-3.69775.08338-5.54663.10044-1.01486.083-2.04132.12272-3.06231.03426-.8774.07413-1.75454.11165-2.63181.00078-.018.00156-.036.00313-.05381.10579-1.17525.21379-2.35025.31619-3.52563.04664-.53486.07126-1.07167.12507-1.60575.09471-.94229.20584-1.88288.30681-2.82465.04768-.44456.074-.89186.13471-1.33447.08494-.61955.20545-1.23415.28844-1.854.15555-1.16275.27046-2.33136.44959-3.49032.13653-.8834.36426-1.75233.51877-2.63338a43.04988,43.04988,0,0,1,.781-4.27144c.13614-.48365.27332-.96717.41963-1.448.44894-1.476.86023-2.96537,1.36558-4.42193a33.46638,33.46638,0,0,1,2.06-4.7977,13.38534,13.38534,0,0,1,.87235-1.39441A1.00135,1.00135,0,0,1,120.80162,65.55466Z" style="fill: #f5f5f5"/>
      <path d="M158.48992,71.32592a2.52148,2.52148,0,0,0-.55981-.48352c-.19959-.11414-.48581-.10827-.355-.47075.01954-.05407-.07165-.1587-.12689-.22775-.61583-.76887-1.23139-1.53825-1.85373-2.30191-.81424-.99936-1.62874-1.99858-2.45588-2.98726-.262-.313-.575-.58281-.84642-.88861-.29664-.3346-.57166-.68848-.857-1.0331-.50235-.60665-1.00888-1.20978-1.50706-1.81982-.45285-.55466-.88746-1.12431-1.34747-1.67285-.4948-.58971-1.01174-1.16092-1.51514-1.74347-.31606-.36574-.63042-.73343-.93618-1.10789-.50913-.62359-1.00536-1.258-1.51709-1.8795-.59173-.7187-1.19921-1.42451-1.7912-2.143-.76278-.92574-1.51162-1.86308-2.27623-2.78713-.77646-.93825-1.57494-1.85826-2.34554-2.80107-1.24677-1.52536-2.46422-3.07495-3.79189-4.53242-.06006-.06593-.10631-.14424-.163-.21355-.408-.49877-.81294-1.00014-1.227-1.494-.472-.56274-.96211-1.1105-1.42681-1.6791-.67979-.83206-1.33314-1.68588-2.01736-2.514q-1.3179-1.5948-2.67162-3.15977a1.43386,1.43386,0,0,0-.5529-.40352,2.7455,2.7455,0,0,0-1.43411-.09863,10.53927,10.53927,0,0,0-2.48011.86346,20.03606,20.03606,0,0,0-3.38855,2.08275c-.5103.361-.968.79649-1.44883,1.19923a14.05118,14.05118,0,0,0-1.58119,1.36327c-.2831.32065-.61374.55505-.90661.84118a5.44151,5.44151,0,0,0-.82258,1.18776.91251.91251,0,0,0-.14487.81968.48092.48092,0,0,1-.05068.30906,2.6865,2.6865,0,0,0,.05276,2.036c.23046.62137.44985,1.24692.69009,1.86451.31228.80274.639,1.60014.96224,2.39872.43083,1.06463.8571,2.13122,1.298,3.19169.55082,1.3247,1.1144,2.64406,1.67252,3.96577q.35586.84294.71184,1.68588c.08429.19987.10774.33929-.15477.46958-.32452.161-.33156.28456-.18148.61408a4.76731,4.76731,0,0,0,.32009.62294.43256.43256,0,0,0,.28283.18606c.5387.0357.54483.03726.68214.53629a4.50331,4.50331,0,0,0,.30042.91232.80405.80405,0,0,1,.07739.26033c.52659,1.18607.56319,2.8567,1.50563,3.75117a.96018.96018,0,0,1,.29052.54945c.02879.02827.05954.02853.0869.07713.08742.15531.1381.33121.22564.48652.07387.13121.00964.18476-.08129.26176-.3967.33577-.39344.33824-.17275.8374.03622.082.053.17277.09263.25264.11269.22671.20545.42958.55512.38085.27932-.03883.48359.12078.59967.4529q.82545,2.36347,1.72346,4.70154c.81007,2.111,1.647,4.21176,2.47634,6.31549.21665.54958.45689,1.09.66989,1.64093a.84491.84491,0,0,0,.8459.539c.50092.02658,1.00341.07922,1.50315.06085.96563-.03557,1.92969-.113,2.8944-.17342a.75323.75323,0,0,0,.1067-.01472q2.02277-.42372,4.04541-.84874c.9285-.19609,1.86728-.3557,2.78171-.60457,1.88539-.51323,3.76023-1.0662,5.63455-1.61969,1.73727-.5131,3.44978-1.09851,5.14614-1.73865a46.00954,46.00954,0,0,0,4.90694-2.217,5.70936,5.70936,0,0,0,1.05213-.64821,6.702,6.702,0,0,0,.81411-.91532A.35933.35933,0,0,0,158.48992,71.32592Z" style="fill: red"/>
    </g>
  </g>
</svg>
